HIERARCHY
ROOT SimulationBone
{
	OFFSET 0.000000 0.000000 0.000000
	CHANNELS 6 Xposition Yposition Zposition Zrotation Yrotation Xrotation 
	JOINT Hips
	{
		OFFSET 0.000000 0.000000 0.000000
		CHANNELS 6 Xposition Yposition Zposition Zrotation Yrotation Xrotation 
		JOINT RightUpLeg
		{
			OFFSET 0.103458 1.857820 10.548502
			CHANNELS 3 Zrotation Yrotation Xrotation
			JOINT RightLeg
			{
				OFFSET 43.500000 -0.000023 -0.000011
				CHANNELS 3 Zrotation Yrotation Xrotation
				JOINT RightFoot
				{
					OFFSET 42.372192 0.000038 0.000002
					CHANNELS 3 Zrotation Yrotation Xrotation
					JOINT RightToe
					{
						OFFSET 17.299992 -0.000004 0.000006
						CHANNELS 3 Zrotation Yrotation Xrotation
						End Site
						{
							OFFSET 0.000000 0.000000 0.000000
						}
					}
				}
			}
		}
		JOINT LeftUpLeg
		{
			OFFSET 0.103461 1.857814 -10.548508
			CHANNELS 3 Zrotation Yrotation Xrotation
			JOINT LeftLeg
			{
				OFFSET 43.500042 -0.000015 0.000008
				CHANNELS 3 Zrotation Yrotation Xrotation
				JOINT LeftFoot
				{
					OFFSET 42.372253 0.000008 0.000006
					CHANNELS 3 Zrotation Yrotation Xrotation
					JOINT LeftToe
					{
						OFFSET 17.299973 -0.000014 0.000011
						CHANNELS 3 Zrotation Yrotation Xrotation
						End Site
						{
							OFFSET 0.000000 0.000000 0.000000
						}
					}
				}
			}
		}
		JOINT Spine
		{
			OFFSET 6.901966 -2.603737 -0.000007
			CHANNELS 3 Zrotation Yrotation Xrotation
			JOINT Spine1
			{
				OFFSET 12.588102 0.000017 0.000001
				CHANNELS 3 Zrotation Yrotation Xrotation
				JOINT Spine2
				{
					OFFSET 12.343197 -0.000013 0.000000
					CHANNELS 3 Zrotation Yrotation Xrotation
					JOINT Neck
					{
						OFFSET 25.832905 -0.000008 0.000000
						CHANNELS 3 Zrotation Yrotation Xrotation
						JOINT Head
						{
							OFFSET 11.766610 0.000009 -0.000002
							CHANNELS 3 Zrotation Yrotation Xrotation
							End Site
							{
								OFFSET 0.000000 0.000000 0.000000
							}
						}
					}
					JOINT RightShoulder
					{
						OFFSET 19.745903 -1.480377 6.000115
						CHANNELS 3 Zrotation Yrotation Xrotation
						JOINT RightArm
						{
							OFFSET 11.284125 -0.000014 -0.000024
							CHANNELS 3 Zrotation Yrotation Xrotation
							JOINT RightForeArm
							{
								OFFSET 33.000046 -0.000012 0.000029
								CHANNELS 3 Zrotation Yrotation Xrotation
								JOINT RightHand
								{
									OFFSET 25.199989 0.000034 0.000012
									CHANNELS 3 Zrotation Yrotation Xrotation
									End Site
									{
										OFFSET 0.000000 0.000000 0.000000
									}
								}
							}
						}
					}
					JOINT LeftShoulder
					{
						OFFSET 19.746098 -1.480362 -6.000071
						CHANNELS 3 Zrotation Yrotation Xrotation
						JOINT LeftArm
						{
							OFFSET 11.284137 -0.000006 -0.000008
							CHANNELS 3 Zrotation Yrotation Xrotation
							JOINT LeftForeArm
							{
								OFFSET 33.000095 0.000017 0.000000
								CHANNELS 3 Zrotation Yrotation Xrotation
								JOINT LeftHand
								{
									OFFSET 25.199778 0.000144 0.000423
									CHANNELS 3 Zrotation Yrotation Xrotation
									End Site
									{
										OFFSET 0.000000 0.000000 0.000000
									}
								}
							}
						}
					}
				}
			}
		}
	}
}
MOTION
Frames: 14
Frame Time: 0.033333
82.743360 0.000000 -175.733482 180.000000 -42.950681 180.000000 -14.799015 85.249550 -3.971720 67.124691 -10.256325 174.466460 119.673848 6.904694 -174.704505 -52.481254 -4.937487 -10.001408 86.520554 5.659358 -7.754993 21.454560 0.003110 0.000017 177.370614 -0.300800 170.221811 -53.754907 3.344764 8.598703 67.013363 -3.569450 7.511851 21.454555 -0.003092 0.000002 11.924751 -2.426398 0.840423 13.819495 -4.935646 1.385584 13.500207 -4.927333 1.415421 -30.524600 4.127704 -3.685045 -18.558594 -5.516315 0.394563 -175.015073 -73.943799 -6.526983 18.021471 41.893126 41.536402 -74.282890 -13.401179 2.595681 -11.155409 -17.814563 25.304603 179.096685 82.726213 0.694898 -22.819607 -47.733006 -1.928136 -96.239114 2.359323 -2.747434 -6.932889 4.615648 -33.211214 
76.161320 0.000000 -171.289466 180.000000 -41.224715 180.000000 -14.091206 83.352737 -3.091834 71.059292 -9.482408 176.949884 127.706929 8.327197 -173.002545 -50.780138 -5.199494 -8.159054 86.300642 4.446381 -7.368826 21.454555 0.003111 0.000018 174.496812 -1.550296 172.384003 -75.064817 3.249661 5.333005 66.377670 -1.182152 7.429265 21.454553 -0.003092 0.000002 12.039274 -2.488932 0.267401 14.074027 -4.991696 0.229580 13.754625 -4.990346 0.259782 -27.488335 5.698443 -3.342250 -20.096942 -5.918088 1.508850 -175.113592 -73.693739 -6.423590 12.349004 44.913483 31.466074 -81.527146 -9.873250 2.662211 -12.945283 -15.478940 27.161400 -177.025403 79.486982 4.575974 -16.298023 -57.411961 -7.877751 -87.456577 5.684323 -2.590162 -6.030532 3.145016 -35.960297 
69.328676 0.000000 -166.872636 180.000000 -39.521472 180.000000 -13.377223 81.608017 -2.500651 75.116002 -9.156484 178.915221 136.177757 9.264208 -173.608095 -55.708454 -4.955696 -7.558444 95.400845 4.695276 -5.128103 21.454560 0.003101 0.000017 169.997097 -1.082302 179.829783 -94.321641 -1.523690 5.819410 66.856303 -1.554441 7.005587 21.454553 -0.003091 0.000003 12.025448 -2.512224 -0.461873 14.077832 -4.949310 -1.227794 13.758525 -4.956775 -1.197825 -22.390748 5.813945 -1.828381 -22.405010 -4.839375 2.446742 -175.941220 -72.793540 -5.565191 3.019854 46.685467 21.363742 -87.196428 -6.513667 2.677441 -14.007134 -14.141512 25.833963 -173.623477 76.274929 8.010623 -4.749677 -64.120655 -17.022633 -80.733963 9.121788 -2.536225 -5.488341 4.733598 -32.625563 
62.261771 0.000000 -162.484296 180.000000 -37.850272 180.000000 -12.985620 80.252998 -2.207496 77.592513 -8.671649 -179.028910 144.168382 9.593507 -173.411673 -58.565833 -4.304367 -6.914378 102.490192 4.465936 -5.340167 21.454558 0.003112 0.000018 162.036348 1.182688 -174.647705 -109.738703 -4.006631 7.686228 69.633232 -2.824508 7.404173 21.454551 -0.003093 -0.000001 11.748608 -2.397038 -1.355053 13.555777 -4.618472 -2.984567 13.237021 -4.636545 -2.956606 -18.813358 5.525405 -0.047769 -24.270756 -3.908212 3.617121 -175.871402 -71.615428 -5.624088 -10.565196 46.221075 9.577466 -92.764863 -2.537478 2.647885 -13.880326 -13.714530 23.122859 -170.741574 73.300415 10.947028 9.571116 -65.680977 -27.422176 -76.227978 9.890619 -2.396655 -3.126712 10.242523 -18.254509 
54.976949 0.000000 -158.125750 180.000000 -36.219981 180.000000 -12.604557 79.854927 -1.653931 78.741493 -7.025744 -177.332511 153.395926 6.888306 -173.216821 -56.446794 -4.314217 -5.479034 107.796006 3.696165 -5.177153 21.454557 0.003105 0.000017 151.105928 1.671099 -171.952089 -118.841617 -4.680034 8.769060 71.848543 -4.350939 5.392842 21.454553 -0.003091 0.000003 11.328557 -1.994581 -2.217948 12.726972 -3.732704 -4.644605 12.409268 -3.760802 -4.622023 -19.603811 6.558855 1.917663 -22.269552 -3.286435 5.630236 -175.858561 -72.129837 -5.642720 -24.316385 45.706598 -1.624856 -100.861800 -0.555808 2.871996 -15.725110 -10.454883 25.843026 -165.502928 73.567688 16.322513 22.821031 -64.079817 -38.991245 -74.131636 9.715264 -2.296263 -3.099981 13.217805 -14.867321 
47.490551 0.000000 -153.798302 180.000000 -34.638845 180.000000 -11.998080 80.570457 -1.043370 79.164899 -4.300921 -176.532095 164.047005 1.886708 -173.180635 -48.899872 -5.356367 -4.240489 108.989609 2.943794 -4.742156 21.454560 0.003103 0.000017 139.719128 0.625196 -170.872782 -120.017598 -4.636962 8.558369 71.937171 -4.480576 4.604390 21.454551 -0.003090 0.000000 10.745316 -1.255878 -2.900809 11.537364 -2.215878 -5.913515 11.220851 -2.251621 -5.900104 -21.720031 8.872955 3.430055 -18.137721 -4.521326 8.398852 179.880012 -75.355483 -1.319228 -34.597008 47.553512 -12.450247 -108.977103 1.842199 3.064267 -14.763358 -11.025131 19.794708 -161.861099 74.967425 20.042000 31.598429 -56.109423 -49.765499 -76.923558 8.520728 -2.330968 -5.925915 12.222331 -21.853361 
39.818922 0.000000 -149.503257 180.000000 -33.114353 180.000000 -11.019936 82.057159 -0.365906 79.082103 -0.840986 -175.737938 175.577034 -2.972705 -172.118076 -37.044149 -5.858877 -4.775334 103.154305 3.135024 -4.592591 21.454560 0.003106 0.000017 130.490136 -0.960910 -170.040291 -114.299889 -3.960335 7.340820 72.588949 -3.680701 4.644474 21.454560 -0.003092 0.000002 10.051240 -0.143931 -3.533185 10.089102 0.020948 -7.065306 9.773628 -0.021753 -7.065309 -23.388946 11.507469 4.730674 -13.840390 -6.957628 11.385039 177.589454 -78.189758 0.963521 -42.370798 48.760686 -19.728742 -114.832296 3.138336 3.227191 -14.797487 -11.801091 13.599760 -156.745110 76.640494 25.244342 34.167693 -45.044568 -56.384212 -81.965077 6.026073 -2.373699 -7.568731 9.440531 -21.514435 
31.978403 0.000000 -145.241917 180.000000 -31.653142 180.000000 -9.865866 84.073647 0.394963 78.614080 2.934932 -174.875704 -174.931335 -7.130600 -169.146916 -26.126102 -6.252970 -8.356411 86.835692 5.174091 -4.252215 21.454560 0.003103 0.000021 124.127828 -3.026701 -170.035128 -103.252502 -2.100945 6.183225 73.240890 -3.069005 4.347746 21.454557 -0.003095 0.000004 9.400646 1.039390 -4.098663 8.705955 2.384048 -8.109052 8.391034 2.335063 -8.123180 -25.105021 15.548721 5.531066 -9.306049 -9.745922 14.375637 177.960087 -80.372830 0.542171 -45.834101 49.394262 -23.270851 -119.371407 3.753006 3.374902 -15.649365 -9.725035 15.150591 -153.632374 78.563786 28.373291 35.778949 -36.031311 -60.203917 -86.620814 3.796540 -2.421509 -9.721432 7.535573 -23.089103 
23.985337 0.000000 -141.015589 180.000000 -30.260933 180.000000 -8.820358 85.880592 1.086316 78.384242 5.914946 -174.940349 -167.148553 -11.348603 -174.061237 -19.131689 -6.588614 -8.250407 71.569297 4.401790 -5.328706 21.454550 0.003118 0.000017 120.927693 -5.116297 -172.628359 -88.683204 1.769585 6.222388 72.838913 -3.078698 4.775336 21.454553 -0.003096 0.000001 8.956331 1.890407 -4.346687 7.752535 4.067301 -8.562194 7.437481 4.015582 -8.586368 -26.628401 19.785318 5.481297 -5.428240 -12.751211 16.613877 179.229136 -81.026070 -0.757334 -44.589210 49.382671 -21.479663 -122.131610 3.952734 3.473642 -16.092858 -9.180493 17.094867 -156.313633 80.307404 25.610235 38.104997 -29.671148 -63.106139 -89.890426 2.661402 -2.486521 -11.037549 6.887903 -22.107929 
15.856069 0.000000 -136.825574 180.000000 -28.942512 180.000000 -7.663155 86.990280 1.373291 78.393482 6.751180 -176.224239 -161.532867 -11.759507 179.851134 -19.076831 -5.947053 -8.209634 64.718494 2.612224 -9.281645 21.454553 0.003117 0.000018 121.101849 -6.429094 -175.678613 -71.998561 4.348560 7.582270 72.524663 -3.719655 6.003855 21.454550 -0.003092 0.000001 8.669951 2.205720 -4.296419 7.160342 4.672389 -8.455087 6.844907 4.621298 -8.482910 -28.733913 22.908371 5.088669 -1.723073 -14.937426 17.917195 -176.408405 -80.512760 -5.174053 -40.468277 49.305636 -15.750848 -122.591008 3.747535 3.506084 -15.789649 -8.877666 17.907704 -161.176851 81.065015 20.664930 39.930140 -26.355560 -64.851383 -91.368861 2.389335 -2.533042 -11.092713 6.576755 -18.933278 
7.606939 0.000000 -132.673178 180.000000 -27.701736 180.000000 -6.534973 86.923271 1.240954 79.365374 5.585725 -176.862191 -159.575253 -9.170102 176.988329 -28.681692 -3.545288 -5.808695 69.907642 1.805727 -7.500155 21.454553 0.003113 0.000018 124.059745 -6.325397 -176.334939 -55.787783 3.163859 7.060092 74.095169 -3.460977 5.687535 21.454553 -0.003092 0.000000 8.593164 2.068347 -4.174809 7.021060 4.385498 -8.222447 6.705553 4.335802 -8.248567 -29.165963 24.059073 4.900150 -0.940411 -16.448933 18.527134 -175.291273 -79.508490 -6.297949 -33.973846 49.994755 -8.176611 -120.646699 3.390644 3.451903 -16.310698 -7.380681 20.832424 -161.615280 80.012845 20.232924 41.086521 -25.174317 -64.239644 -92.449773 2.036241 -2.556363 -11.134072 6.391816 -14.815010 
-0.745708 0.000000 -128.559704 180.000000 -26.541577 180.000000 -5.806352 86.106903 0.991207 81.026859 4.433245 -176.958092 -160.141886 -6.797195 177.562584 -43.633110 -1.739957 -4.535490 72.413345 1.561072 -5.672810 21.454570 0.003102 0.000020 129.155121 -6.217192 -178.650769 -40.632461 3.301846 7.408188 76.365620 -3.783716 5.734267 21.454555 -0.003094 0.000000 8.728657 1.944828 -3.960948 7.308359 4.135357 -7.796204 6.992594 4.088214 -7.820851 -29.369810 22.664591 5.034471 -0.536094 -16.507030 18.028890 -173.962254 -78.598388 -7.641751 -26.030298 52.286051 0.512622 -115.832495 2.679929 3.301033 -16.473725 -6.612594 24.273975 -158.503118 78.443992 23.419616 41.258065 -27.455060 -61.480070 -92.361855 1.953728 -2.546697 -11.399660 7.032789 -11.262049 
-9.185531 0.000000 -124.486457 180.000000 -25.464177 180.000000 -4.976774 84.781357 0.841102 82.946822 4.023513 -177.490067 -161.899088 -4.922303 -179.639221 -60.562051 -2.460614 -5.821827 72.155361 2.326138 -6.242454 21.454562 0.003110 0.000016 135.234303 -6.988098 -179.573309 -30.093482 2.707833 8.187554 74.917203 -3.455457 8.605378 21.454553 -0.003093 0.000000 8.924948 1.977022 -3.469976 7.717880 4.180640 -6.804825 7.401343 4.139433 -6.829816 -28.950829 20.831490 5.275910 -0.364592 -16.533629 17.361538 -171.010984 -76.913230 -10.640814 -16.973245 54.756008 10.214412 -108.513708 1.262033 3.084203 -15.680087 -6.389537 25.708047 -156.850527 76.407195 25.141409 40.084318 -32.030497 -56.399088 -91.360467 1.843113 -2.494501 -10.509909 7.720889 -7.696102 
-17.696185 0.000000 -120.454740 180.000000 -24.470930 180.000000 -4.469663 83.348602 0.674250 84.972623 4.493614 -178.626212 -165.275032 -3.755203 178.275655 -78.417422 0.124366 -6.948792 72.186794 2.683810 -7.373035 21.454565 0.003107 0.000018 138.174194 -8.082797 -175.266233 -36.436788 3.258247 8.756222 67.447947 -8.306222 -5.342696 21.454555 -0.003093 0.000000 9.097219 2.138681 -2.694137 8.085594 4.460071 -5.236151 7.767932 4.428276 -5.262934 -25.820851 18.055141 6.009601 -2.224992 -15.721053 16.527391 -166.793547 -74.809559 -14.952833 -7.439744 56.277012 19.995826 -99.482730 -0.836267 2.829941 -16.850889 -5.836519 28.845771 -156.997390 74.538729 25.027710 37.342495 -38.030364 -49.796304 -90.045068 2.127279 -2.456048 -10.364775 5.955380 -9.303244 
